<svg xmlns="http://www.w3.org/2000/svg" xmlns:xlink="http://www.w3.org/1999/xlink" width="1764" zoomAndPan="magnify" viewBox="0 0 1323 160.499995" height="214" preserveAspectRatio="xMidYMid meet" version="1.0"><defs><g/><clipPath id="e3c6a60493"><path d="M 2.054688 0 L 1320.945312 0 L 1320.945312 160 L 2.054688 160 Z M 2.054688 0 " clip-rule="nonzero"/></clipPath></defs><g clip-path="url(#e3c6a60493)"><path fill="#ffffff" d="M 2.054688 0 L 1320.945312 0 L 1320.945312 160 L 2.054688 160 Z M 2.054688 0 " fill-opacity="1" fill-rule="nonzero"/><path fill="#162649" d="M 2.054688 0 L 1320.945312 0 L 1320.945312 160 L 2.054688 160 Z M 2.054688 0 " fill-opacity="1" fill-rule="nonzero"/></g><g fill="#ff0000" fill-opacity="1"><g transform="translate(89.995195, 149.422545)"><g><path d="M 25.359375 0 C 23.753906 0 22.953125 -0.75 22.953125 -2.25 L 13.625 -118.015625 C 13.625 -119.847656 14.546875 -120.765625 16.390625 -120.765625 L 45.203125 -120.765625 C 46.816406 -120.765625 47.566406 -119.960938 47.453125 -118.359375 L 47.453125 -56.421875 C 47.335938 -56.078125 47.453125 -55.90625 47.796875 -55.90625 C 48.140625 -55.90625 48.367188 -56.078125 48.484375 -56.421875 L 62.96875 -118.359375 C 63.3125 -119.960938 64.289062 -120.765625 65.90625 -120.765625 L 93.859375 -120.765625 C 94.660156 -120.765625 95.257812 -120.535156 95.65625 -120.078125 C 96.0625 -119.617188 96.09375 -118.929688 95.75 -118.015625 L 57.796875 -2.25 C 57.335938 -0.75 56.300781 0 54.6875 0 Z M 25.359375 0 "/></g></g></g><g fill="#ff0000" fill-opacity="1"><g transform="translate(189.37297, 149.422545)"><g><path d="M 3.453125 0 C 2.765625 0 2.21875 -0.226562 1.8125 -0.6875 C 1.40625 -1.144531 1.257812 -1.78125 1.375 -2.59375 L 15.53125 -118.1875 C 15.644531 -118.988281 15.957031 -119.617188 16.46875 -120.078125 C 16.988281 -120.535156 17.59375 -120.765625 18.28125 -120.765625 L 44.859375 -120.765625 C 45.546875 -120.765625 46.085938 -120.535156 46.484375 -120.078125 C 46.890625 -119.617188 47.035156 -118.988281 46.921875 -118.1875 L 32.78125 -2.59375 C 32.664062 -1.78125 32.347656 -1.144531 31.828125 -0.6875 C 31.316406 -0.226562 30.710938 0 30.015625 0 Z M 3.453125 0 "/></g></g></g><g fill="#ff0000" fill-opacity="1"><g transform="translate(241.822648, 149.422545)"><g><path d="M 35.890625 1.375 C 25.992188 1.375 18.171875 -1.179688 12.421875 -6.296875 C 6.671875 -11.410156 3.796875 -18.226562 3.796875 -26.75 C 3.796875 -27.550781 3.910156 -28.988281 4.140625 -31.0625 L 4.828125 -36.40625 C 4.941406 -37.207031 5.257812 -37.835938 5.78125 -38.296875 C 6.300781 -38.753906 6.90625 -38.984375 7.59375 -38.984375 L 33.8125 -38.984375 C 34.5 -38.984375 35.046875 -38.753906 35.453125 -38.296875 C 35.859375 -37.835938 36.003906 -37.207031 35.890625 -36.40625 L 35.546875 -32.609375 C 35.316406 -30.765625 35.546875 -29.265625 36.234375 -28.109375 C 36.921875 -26.960938 37.957031 -26.390625 39.34375 -26.390625 C 40.832031 -26.390625 42.09375 -27.019531 43.125 -28.28125 C 44.164062 -29.550781 44.6875 -31.109375 44.6875 -32.953125 C 44.6875 -34.679688 43.851562 -36.460938 42.1875 -38.296875 C 40.519531 -40.140625 37.328125 -42.957031 32.609375 -46.75 C 28.003906 -50.550781 24.207031 -53.914062 21.21875 -56.84375 C 18.226562 -59.78125 15.640625 -63.40625 13.453125 -67.71875 C 11.265625 -72.03125 10.171875 -76.945312 10.171875 -82.46875 C 10.171875 -83.5 10.289062 -85.28125 10.53125 -87.8125 C 11.789062 -98.050781 16.039062 -106.332031 23.28125 -112.65625 C 30.53125 -118.988281 39.5625 -122.15625 50.375 -122.15625 C 60.269531 -122.15625 68.0625 -119.507812 73.75 -114.21875 C 79.445312 -108.925781 82.296875 -101.796875 82.296875 -92.828125 C 82.296875 -91.785156 82.179688 -90.113281 81.953125 -87.8125 L 81.4375 -84.015625 C 81.320312 -83.210938 81.003906 -82.582031 80.484375 -82.125 C 79.960938 -81.664062 79.359375 -81.4375 78.671875 -81.4375 L 52.625 -81.4375 C 51.9375 -81.4375 51.390625 -81.664062 50.984375 -82.125 C 50.578125 -82.582031 50.429688 -83.210938 50.546875 -84.015625 L 51.0625 -88.515625 C 51.175781 -90.234375 50.859375 -91.640625 50.109375 -92.734375 C 49.367188 -93.828125 48.304688 -94.375 46.921875 -94.375 C 45.316406 -94.375 43.992188 -93.679688 42.953125 -92.296875 C 41.921875 -90.921875 41.40625 -89.082031 41.40625 -86.78125 C 41.40625 -84.820312 42.207031 -82.804688 43.8125 -80.734375 C 45.425781 -78.671875 48.421875 -75.800781 52.796875 -72.125 C 58.660156 -67.175781 63.144531 -63.175781 66.25 -60.125 C 69.351562 -57.082031 71.796875 -53.75 73.578125 -50.125 C 75.367188 -46.5 76.265625 -42.382812 76.265625 -37.78125 C 76.265625 -36.863281 76.144531 -35.253906 75.90625 -32.953125 C 74.53125 -22.484375 70.191406 -14.144531 62.890625 -7.9375 C 55.585938 -1.726562 46.585938 1.375 35.890625 1.375 Z M 35.890625 1.375 "/></g></g></g><g fill="#ff0000" fill-opacity="1"><g transform="translate(331.538776, 149.422545)"><g><path d="M 56.765625 -118.1875 C 56.878906 -118.988281 57.164062 -119.617188 57.625 -120.078125 C 58.082031 -120.535156 58.710938 -120.765625 59.515625 -120.765625 L 85.921875 -120.765625 C 86.722656 -120.765625 87.328125 -120.535156 87.734375 -120.078125 C 88.140625 -119.617188 88.28125 -118.988281 88.15625 -118.1875 L 74.015625 -2.59375 C 73.898438 -1.78125 73.582031 -1.144531 73.0625 -0.6875 C 72.550781 -0.226562 71.890625 0 71.078125 0 L 44.6875 0 C 43.882812 0 43.28125 -0.226562 42.875 -0.6875 C 42.46875 -1.144531 42.320312 -1.78125 42.4375 -2.59375 L 47.796875 -45.71875 C 47.796875 -46.289062 47.5625 -46.578125 47.09375 -46.578125 L 38.984375 -46.578125 C 38.410156 -46.578125 38.125 -46.289062 38.125 -45.71875 L 32.78125 -2.59375 C 32.664062 -1.78125 32.347656 -1.144531 31.828125 -0.6875 C 31.316406 -0.226562 30.710938 0 30.015625 0 L 3.453125 0 C 2.765625 0 2.21875 -0.226562 1.8125 -0.6875 C 1.40625 -1.144531 1.257812 -1.78125 1.375 -2.59375 L 15.53125 -118.1875 C 15.644531 -118.988281 15.957031 -119.617188 16.46875 -120.078125 C 16.988281 -120.535156 17.59375 -120.765625 18.28125 -120.765625 L 44.859375 -120.765625 C 45.546875 -120.765625 46.085938 -120.535156 46.484375 -120.078125 C 46.890625 -119.617188 47.035156 -118.988281 46.921875 -118.1875 L 41.75 -75.21875 C 41.519531 -74.644531 41.75 -74.359375 42.4375 -74.359375 L 50.546875 -74.359375 C 50.773438 -74.359375 50.976562 -74.441406 51.15625 -74.609375 C 51.332031 -74.785156 51.421875 -74.988281 51.421875 -75.21875 Z M 56.765625 -118.1875 "/></g></g></g><g fill="#ff0000" fill-opacity="1"><g transform="translate(425.05053, 149.422545)"><g><path d="M 24.84375 0 C 23.226562 0 22.363281 -0.75 22.25 -2.25 L 13.625 -118.015625 C 13.625 -119.847656 14.546875 -120.765625 16.390625 -120.765625 L 43.65625 -120.765625 C 45.257812 -120.765625 46.0625 -119.960938 46.0625 -118.359375 L 45.203125 -64.875 C 45.085938 -64.53125 45.203125 -64.359375 45.546875 -64.359375 C 45.890625 -64.359375 46.0625 -64.53125 46.0625 -64.875 L 58.828125 -118.359375 C 59.171875 -119.960938 60.207031 -120.765625 61.9375 -120.765625 L 82.296875 -120.765625 C 83.910156 -120.765625 84.71875 -119.960938 84.71875 -118.359375 L 85.234375 -64.875 C 85.234375 -64.644531 85.375 -64.5 85.65625 -64.4375 C 85.945312 -64.382812 86.09375 -64.53125 86.09375 -64.875 L 97.65625 -118.359375 C 98.113281 -119.960938 99.085938 -120.765625 100.578125 -120.765625 L 127.15625 -120.765625 C 129.113281 -120.765625 129.742188 -119.847656 129.046875 -118.015625 L 93.515625 -2.25 C 93.054688 -0.75 92.019531 0 90.40625 0 L 67.28125 0 C 65.675781 0 64.875 -0.804688 64.875 -2.421875 L 64.53125 -58.65625 C 64.644531 -59 64.554688 -59.140625 64.265625 -59.078125 C 63.984375 -59.023438 63.785156 -58.828125 63.671875 -58.484375 L 51.0625 -2.421875 C 50.601562 -0.804688 49.570312 0 47.96875 0 Z M 24.84375 0 "/></g></g></g><g fill="#ff0000" fill-opacity="1"><g transform="translate(557.726568, 149.422545)"><g><path d="M 79.703125 -95.578125 C 79.585938 -94.773438 79.269531 -94.144531 78.75 -93.6875 C 78.238281 -93.226562 77.582031 -93 76.78125 -93 L 44.6875 -93 C 44.113281 -93 43.828125 -92.707031 43.828125 -92.125 L 41.75 -75.21875 C 41.519531 -74.644531 41.75 -74.359375 42.4375 -74.359375 L 59.171875 -74.359375 C 59.984375 -74.359375 60.585938 -74.128906 60.984375 -73.671875 C 61.390625 -73.210938 61.535156 -72.578125 61.421875 -71.765625 L 58.65625 -49.171875 C 58.3125 -47.441406 57.335938 -46.578125 55.734375 -46.578125 L 38.984375 -46.578125 C 38.410156 -46.578125 38.125 -46.289062 38.125 -45.71875 L 36.0625 -28.640625 C 35.832031 -28.066406 36.0625 -27.78125 36.75 -27.78125 L 68.84375 -27.78125 C 69.644531 -27.78125 70.242188 -27.546875 70.640625 -27.078125 C 71.046875 -26.617188 71.191406 -25.988281 71.078125 -25.1875 L 68.328125 -2.59375 C 68.210938 -1.78125 67.894531 -1.144531 67.375 -0.6875 C 66.851562 -0.226562 66.191406 0 65.390625 0 L 3.453125 0 C 2.765625 0 2.21875 -0.226562 1.8125 -0.6875 C 1.40625 -1.144531 1.257812 -1.78125 1.375 -2.59375 L 15.53125 -118.1875 C 15.644531 -118.988281 15.957031 -119.617188 16.46875 -120.078125 C 16.988281 -120.535156 17.59375 -120.765625 18.28125 -120.765625 L 80.234375 -120.765625 C 81.035156 -120.765625 81.632812 -120.535156 82.03125 -120.078125 C 82.4375 -119.617188 82.582031 -118.988281 82.46875 -118.1875 Z M 79.703125 -95.578125 "/></g></g></g><g fill="#ff0000" fill-opacity="1"><g transform="translate(644.337126, 149.422545)"><g><path d="M 35.890625 1.375 C 25.992188 1.375 18.171875 -1.179688 12.421875 -6.296875 C 6.671875 -11.410156 3.796875 -18.226562 3.796875 -26.75 C 3.796875 -27.550781 3.910156 -28.988281 4.140625 -31.0625 L 4.828125 -36.40625 C 4.941406 -37.207031 5.257812 -37.835938 5.78125 -38.296875 C 6.300781 -38.753906 6.90625 -38.984375 7.59375 -38.984375 L 33.8125 -38.984375 C 34.5 -38.984375 35.046875 -38.753906 35.453125 -38.296875 C 35.859375 -37.835938 36.003906 -37.207031 35.890625 -36.40625 L 35.546875 -32.609375 C 35.316406 -30.765625 35.546875 -29.265625 36.234375 -28.109375 C 36.921875 -26.960938 37.957031 -26.390625 39.34375 -26.390625 C 40.832031 -26.390625 42.09375 -27.019531 43.125 -28.28125 C 44.164062 -29.550781 44.6875 -31.109375 44.6875 -32.953125 C 44.6875 -34.679688 43.851562 -36.460938 42.1875 -38.296875 C 40.519531 -40.140625 37.328125 -42.957031 32.609375 -46.75 C 28.003906 -50.550781 24.207031 -53.914062 21.21875 -56.84375 C 18.226562 -59.78125 15.640625 -63.40625 13.453125 -67.71875 C 11.265625 -72.03125 10.171875 -76.945312 10.171875 -82.46875 C 10.171875 -83.5 10.289062 -85.28125 10.53125 -87.8125 C 11.789062 -98.050781 16.039062 -106.332031 23.28125 -112.65625 C 30.53125 -118.988281 39.5625 -122.15625 50.375 -122.15625 C 60.269531 -122.15625 68.0625 -119.507812 73.75 -114.21875 C 79.445312 -108.925781 82.296875 -101.796875 82.296875 -92.828125 C 82.296875 -91.785156 82.179688 -90.113281 81.953125 -87.8125 L 81.4375 -84.015625 C 81.320312 -83.210938 81.003906 -82.582031 80.484375 -82.125 C 79.960938 -81.664062 79.359375 -81.4375 78.671875 -81.4375 L 52.625 -81.4375 C 51.9375 -81.4375 51.390625 -81.664062 50.984375 -82.125 C 50.578125 -82.582031 50.429688 -83.210938 50.546875 -84.015625 L 51.0625 -88.515625 C 51.175781 -90.234375 50.859375 -91.640625 50.109375 -92.734375 C 49.367188 -93.828125 48.304688 -94.375 46.921875 -94.375 C 45.316406 -94.375 43.992188 -93.679688 42.953125 -92.296875 C 41.921875 -90.921875 41.40625 -89.082031 41.40625 -86.78125 C 41.40625 -84.820312 42.207031 -82.804688 43.8125 -80.734375 C 45.425781 -78.671875 48.421875 -75.800781 52.796875 -72.125 C 58.660156 -67.175781 63.144531 -63.175781 66.25 -60.125 C 69.351562 -57.082031 71.796875 -53.75 73.578125 -50.125 C 75.367188 -46.5 76.265625 -42.382812 76.265625 -37.78125 C 76.265625 -36.863281 76.144531 -35.253906 75.90625 -32.953125 C 74.53125 -22.484375 70.191406 -14.144531 62.890625 -7.9375 C 55.585938 -1.726562 46.585938 1.375 35.890625 1.375 Z M 35.890625 1.375 "/></g></g></g><g fill="#ff0000" fill-opacity="1"><g transform="translate(734.053214, 149.422545)"><g><path d="M 56.765625 -118.1875 C 56.878906 -118.988281 57.164062 -119.617188 57.625 -120.078125 C 58.082031 -120.535156 58.710938 -120.765625 59.515625 -120.765625 L 85.921875 -120.765625 C 86.722656 -120.765625 87.328125 -120.535156 87.734375 -120.078125 C 88.140625 -119.617188 88.28125 -118.988281 88.15625 -118.1875 L 74.015625 -2.59375 C 73.898438 -1.78125 73.582031 -1.144531 73.0625 -0.6875 C 72.550781 -0.226562 71.890625 0 71.078125 0 L 44.6875 0 C 43.882812 0 43.28125 -0.226562 42.875 -0.6875 C 42.46875 -1.144531 42.320312 -1.78125 42.4375 -2.59375 L 47.796875 -45.71875 C 47.796875 -46.289062 47.5625 -46.578125 47.09375 -46.578125 L 38.984375 -46.578125 C 38.410156 -46.578125 38.125 -46.289062 38.125 -45.71875 L 32.78125 -2.59375 C 32.664062 -1.78125 32.347656 -1.144531 31.828125 -0.6875 C 31.316406 -0.226562 30.710938 0 30.015625 0 L 3.453125 0 C 2.765625 0 2.21875 -0.226562 1.8125 -0.6875 C 1.40625 -1.144531 1.257812 -1.78125 1.375 -2.59375 L 15.53125 -118.1875 C 15.644531 -118.988281 15.957031 -119.617188 16.46875 -120.078125 C 16.988281 -120.535156 17.59375 -120.765625 18.28125 -120.765625 L 44.859375 -120.765625 C 45.546875 -120.765625 46.085938 -120.535156 46.484375 -120.078125 C 46.890625 -119.617188 47.035156 -118.988281 46.921875 -118.1875 L 41.75 -75.21875 C 41.519531 -74.644531 41.75 -74.359375 42.4375 -74.359375 L 50.546875 -74.359375 C 50.773438 -74.359375 50.976562 -74.441406 51.15625 -74.609375 C 51.332031 -74.785156 51.421875 -74.988281 51.421875 -75.21875 Z M 56.765625 -118.1875 "/></g></g></g><g fill="#ff0000" fill-opacity="1"><g transform="translate(827.564969, 149.422545)"><g><path d="M 24.84375 0 C 23.226562 0 22.363281 -0.75 22.25 -2.25 L 13.625 -118.015625 C 13.625 -119.847656 14.546875 -120.765625 16.390625 -120.765625 L 43.65625 -120.765625 C 45.257812 -120.765625 46.0625 -119.960938 46.0625 -118.359375 L 45.203125 -64.875 C 45.085938 -64.53125 45.203125 -64.359375 45.546875 -64.359375 C 45.890625 -64.359375 46.0625 -64.53125 46.0625 -64.875 L 58.828125 -118.359375 C 59.171875 -119.960938 60.207031 -120.765625 61.9375 -120.765625 L 82.296875 -120.765625 C 83.910156 -120.765625 84.71875 -119.960938 84.71875 -118.359375 L 85.234375 -64.875 C 85.234375 -64.644531 85.375 -64.5 85.65625 -64.4375 C 85.945312 -64.382812 86.09375 -64.53125 86.09375 -64.875 L 97.65625 -118.359375 C 98.113281 -119.960938 99.085938 -120.765625 100.578125 -120.765625 L 127.15625 -120.765625 C 129.113281 -120.765625 129.742188 -119.847656 129.046875 -118.015625 L 93.515625 -2.25 C 93.054688 -0.75 92.019531 0 90.40625 0 L 67.28125 0 C 65.675781 0 64.875 -0.804688 64.875 -2.421875 L 64.53125 -58.65625 C 64.644531 -59 64.554688 -59.140625 64.265625 -59.078125 C 63.984375 -59.023438 63.785156 -58.828125 63.671875 -58.484375 L 51.0625 -2.421875 C 50.601562 -0.804688 49.570312 0 47.96875 0 Z M 24.84375 0 "/></g></g></g><g fill="#ff0000" fill-opacity="1"><g transform="translate(960.241007, 149.422545)"><g><path d="M 53.65625 0 C 52.039062 0 51.296875 -0.804688 51.421875 -2.421875 L 51.0625 -15.53125 C 51.175781 -15.757812 51.117188 -15.957031 50.890625 -16.125 C 50.660156 -16.300781 50.429688 -16.390625 50.203125 -16.390625 L 35.203125 -16.390625 C 34.617188 -16.390625 34.210938 -16.101562 33.984375 -15.53125 L 30.703125 -2.421875 C 30.359375 -0.804688 29.382812 0 27.78125 0 L 1.546875 0 C -0.171875 0 -0.800781 -0.921875 -0.34375 -2.765625 L 37.609375 -118.53125 C 38.066406 -120.019531 39.101562 -120.765625 40.71875 -120.765625 L 71.25 -120.765625 C 72.863281 -120.765625 73.726562 -120.019531 73.84375 -118.53125 L 83.328125 -2.765625 L 83.328125 -2.421875 C 83.328125 -0.804688 82.46875 0 80.75 0 Z M 41.0625 -42.09375 C 40.832031 -41.519531 41.003906 -41.234375 41.578125 -41.234375 L 49.6875 -41.234375 C 50.03125 -41.234375 50.316406 -41.519531 50.546875 -42.09375 L 49.859375 -74.015625 C 49.859375 -74.472656 49.710938 -74.671875 49.421875 -74.609375 C 49.140625 -74.554688 49 -74.359375 49 -74.015625 Z M 41.0625 -42.09375 "/></g></g></g><g fill="#ff0000" fill-opacity="1"><g transform="translate(1061.344042, 149.422545)"><g><path d="M 46.75 0 C 45.375 0 44.570312 -0.75 44.34375 -2.25 L 39.34375 -45.71875 C 39.34375 -46.175781 39.164062 -46.40625 38.8125 -46.40625 C 38.351562 -46.40625 38.125 -46.117188 38.125 -45.546875 L 32.78125 -2.59375 C 32.664062 -1.78125 32.347656 -1.144531 31.828125 -0.6875 C 31.316406 -0.226562 30.710938 0 30.015625 0 L 3.453125 0 C 2.765625 0 2.21875 -0.226562 1.8125 -0.6875 C 1.40625 -1.144531 1.257812 -1.78125 1.375 -2.59375 L 15.53125 -118.1875 C 15.644531 -118.988281 15.957031 -119.617188 16.46875 -120.078125 C 16.988281 -120.535156 17.59375 -120.765625 18.28125 -120.765625 L 56.078125 -120.765625 C 65.273438 -120.765625 72.546875 -117.832031 77.890625 -111.96875 C 83.242188 -106.101562 85.921875 -98.34375 85.921875 -88.6875 C 85.921875 -85.925781 85.804688 -83.796875 85.578125 -82.296875 C 84.773438 -75.972656 82.992188 -70.304688 80.234375 -65.296875 C 77.472656 -60.296875 73.90625 -56.242188 69.53125 -53.140625 C 68.957031 -52.796875 68.785156 -52.394531 69.015625 -51.9375 L 76.4375 -2.9375 L 76.4375 -2.25 C 76.4375 -1.550781 76.203125 -1 75.734375 -0.59375 C 75.273438 -0.195312 74.703125 0 74.015625 0 Z M 44.6875 -93 C 44.113281 -93 43.828125 -92.707031 43.828125 -92.125 L 41.234375 -71.953125 C 41.234375 -71.367188 41.519531 -71.078125 42.09375 -71.078125 L 44.34375 -71.078125 C 47.101562 -71.078125 49.429688 -72.285156 51.328125 -74.703125 C 53.222656 -77.117188 54.171875 -80.457031 54.171875 -84.71875 C 54.171875 -87.363281 53.535156 -89.40625 52.265625 -90.84375 C 51.003906 -92.28125 49.28125 -93 47.09375 -93 Z M 44.6875 -93 "/></g></g></g><g fill="#00ffff" fill-opacity="1"><g transform="translate(103.864779, 146.220494)"><g><path d="M 25.359375 0 C 23.753906 0 22.953125 -0.75 22.953125 -2.25 L 13.625 -118.015625 C 13.625 -119.847656 14.546875 -120.765625 16.390625 -120.765625 L 45.203125 -120.765625 C 46.816406 -120.765625 47.566406 -119.960938 47.453125 -118.359375 L 47.453125 -56.421875 C 47.335938 -56.078125 47.453125 -55.90625 47.796875 -55.90625 C 48.140625 -55.90625 48.367188 -56.078125 48.484375 -56.421875 L 62.96875 -118.359375 C 63.3125 -119.960938 64.289062 -120.765625 65.90625 -120.765625 L 93.859375 -120.765625 C 94.660156 -120.765625 95.257812 -120.535156 95.65625 -120.078125 C 96.0625 -119.617188 96.09375 -118.929688 95.75 -118.015625 L 57.796875 -2.25 C 57.335938 -0.75 56.300781 0 54.6875 0 Z M 25.359375 0 "/></g></g></g><g fill="#00ffff" fill-opacity="1"><g transform="translate(203.242554, 146.220494)"><g><path d="M 3.453125 0 C 2.765625 0 2.21875 -0.226562 1.8125 -0.6875 C 1.40625 -1.144531 1.257812 -1.78125 1.375 -2.59375 L 15.53125 -118.1875 C 15.644531 -118.988281 15.957031 -119.617188 16.46875 -120.078125 C 16.988281 -120.535156 17.59375 -120.765625 18.28125 -120.765625 L 44.859375 -120.765625 C 45.546875 -120.765625 46.085938 -120.535156 46.484375 -120.078125 C 46.890625 -119.617188 47.035156 -118.988281 46.921875 -118.1875 L 32.78125 -2.59375 C 32.664062 -1.78125 32.347656 -1.144531 31.828125 -0.6875 C 31.316406 -0.226562 30.710938 0 30.015625 0 Z M 3.453125 0 "/></g></g></g><g fill="#00ffff" fill-opacity="1"><g transform="translate(255.692233, 146.220494)"><g><path d="M 35.890625 1.375 C 25.992188 1.375 18.171875 -1.179688 12.421875 -6.296875 C 6.671875 -11.410156 3.796875 -18.226562 3.796875 -26.75 C 3.796875 -27.550781 3.910156 -28.988281 4.140625 -31.0625 L 4.828125 -36.40625 C 4.941406 -37.207031 5.257812 -37.835938 5.78125 -38.296875 C 6.300781 -38.753906 6.90625 -38.984375 7.59375 -38.984375 L 33.8125 -38.984375 C 34.5 -38.984375 35.046875 -38.753906 35.453125 -38.296875 C 35.859375 -37.835938 36.003906 -37.207031 35.890625 -36.40625 L 35.546875 -32.609375 C 35.316406 -30.765625 35.546875 -29.265625 36.234375 -28.109375 C 36.921875 -26.960938 37.957031 -26.390625 39.34375 -26.390625 C 40.832031 -26.390625 42.09375 -27.019531 43.125 -28.28125 C 44.164062 -29.550781 44.6875 -31.109375 44.6875 -32.953125 C 44.6875 -34.679688 43.851562 -36.460938 42.1875 -38.296875 C 40.519531 -40.140625 37.328125 -42.957031 32.609375 -46.75 C 28.003906 -50.550781 24.207031 -53.914062 21.21875 -56.84375 C 18.226562 -59.78125 15.640625 -63.40625 13.453125 -67.71875 C 11.265625 -72.03125 10.171875 -76.945312 10.171875 -82.46875 C 10.171875 -83.5 10.289062 -85.28125 10.53125 -87.8125 C 11.789062 -98.050781 16.039062 -106.332031 23.28125 -112.65625 C 30.53125 -118.988281 39.5625 -122.15625 50.375 -122.15625 C 60.269531 -122.15625 68.0625 -119.507812 73.75 -114.21875 C 79.445312 -108.925781 82.296875 -101.796875 82.296875 -92.828125 C 82.296875 -91.785156 82.179688 -90.113281 81.953125 -87.8125 L 81.4375 -84.015625 C 81.320312 -83.210938 81.003906 -82.582031 80.484375 -82.125 C 79.960938 -81.664062 79.359375 -81.4375 78.671875 -81.4375 L 52.625 -81.4375 C 51.9375 -81.4375 51.390625 -81.664062 50.984375 -82.125 C 50.578125 -82.582031 50.429688 -83.210938 50.546875 -84.015625 L 51.0625 -88.515625 C 51.175781 -90.234375 50.859375 -91.640625 50.109375 -92.734375 C 49.367188 -93.828125 48.304688 -94.375 46.921875 -94.375 C 45.316406 -94.375 43.992188 -93.679688 42.953125 -92.296875 C 41.921875 -90.921875 41.40625 -89.082031 41.40625 -86.78125 C 41.40625 -84.820312 42.207031 -82.804688 43.8125 -80.734375 C 45.425781 -78.671875 48.421875 -75.800781 52.796875 -72.125 C 58.660156 -67.175781 63.144531 -63.175781 66.25 -60.125 C 69.351562 -57.082031 71.796875 -53.75 73.578125 -50.125 C 75.367188 -46.5 76.265625 -42.382812 76.265625 -37.78125 C 76.265625 -36.863281 76.144531 -35.253906 75.90625 -32.953125 C 74.53125 -22.484375 70.191406 -14.144531 62.890625 -7.9375 C 55.585938 -1.726562 46.585938 1.375 35.890625 1.375 Z M 35.890625 1.375 "/></g></g></g><g fill="#00ffff" fill-opacity="1"><g transform="translate(345.40836, 146.220494)"><g><path d="M 56.765625 -118.1875 C 56.878906 -118.988281 57.164062 -119.617188 57.625 -120.078125 C 58.082031 -120.535156 58.710938 -120.765625 59.515625 -120.765625 L 85.921875 -120.765625 C 86.722656 -120.765625 87.328125 -120.535156 87.734375 -120.078125 C 88.140625 -119.617188 88.28125 -118.988281 88.15625 -118.1875 L 74.015625 -2.59375 C 73.898438 -1.78125 73.582031 -1.144531 73.0625 -0.6875 C 72.550781 -0.226562 71.890625 0 71.078125 0 L 44.6875 0 C 43.882812 0 43.28125 -0.226562 42.875 -0.6875 C 42.46875 -1.144531 42.320312 -1.78125 42.4375 -2.59375 L 47.796875 -45.71875 C 47.796875 -46.289062 47.5625 -46.578125 47.09375 -46.578125 L 38.984375 -46.578125 C 38.410156 -46.578125 38.125 -46.289062 38.125 -45.71875 L 32.78125 -2.59375 C 32.664062 -1.78125 32.347656 -1.144531 31.828125 -0.6875 C 31.316406 -0.226562 30.710938 0 30.015625 0 L 3.453125 0 C 2.765625 0 2.21875 -0.226562 1.8125 -0.6875 C 1.40625 -1.144531 1.257812 -1.78125 1.375 -2.59375 L 15.53125 -118.1875 C 15.644531 -118.988281 15.957031 -119.617188 16.46875 -120.078125 C 16.988281 -120.535156 17.59375 -120.765625 18.28125 -120.765625 L 44.859375 -120.765625 C 45.546875 -120.765625 46.085938 -120.535156 46.484375 -120.078125 C 46.890625 -119.617188 47.035156 -118.988281 46.921875 -118.1875 L 41.75 -75.21875 C 41.519531 -74.644531 41.75 -74.359375 42.4375 -74.359375 L 50.546875 -74.359375 C 50.773438 -74.359375 50.976562 -74.441406 51.15625 -74.609375 C 51.332031 -74.785156 51.421875 -74.988281 51.421875 -75.21875 Z M 56.765625 -118.1875 "/></g></g></g><g fill="#00ffff" fill-opacity="1"><g transform="translate(438.920115, 146.220494)"><g><path d="M 24.84375 0 C 23.226562 0 22.363281 -0.75 22.25 -2.25 L 13.625 -118.015625 C 13.625 -119.847656 14.546875 -120.765625 16.390625 -120.765625 L 43.65625 -120.765625 C 45.257812 -120.765625 46.0625 -119.960938 46.0625 -118.359375 L 45.203125 -64.875 C 45.085938 -64.53125 45.203125 -64.359375 45.546875 -64.359375 C 45.890625 -64.359375 46.0625 -64.53125 46.0625 -64.875 L 58.828125 -118.359375 C 59.171875 -119.960938 60.207031 -120.765625 61.9375 -120.765625 L 82.296875 -120.765625 C 83.910156 -120.765625 84.71875 -119.960938 84.71875 -118.359375 L 85.234375 -64.875 C 85.234375 -64.644531 85.375 -64.5 85.65625 -64.4375 C 85.945312 -64.382812 86.09375 -64.53125 86.09375 -64.875 L 97.65625 -118.359375 C 98.113281 -119.960938 99.085938 -120.765625 100.578125 -120.765625 L 127.15625 -120.765625 C 129.113281 -120.765625 129.742188 -119.847656 129.046875 -118.015625 L 93.515625 -2.25 C 93.054688 -0.75 92.019531 0 90.40625 0 L 67.28125 0 C 65.675781 0 64.875 -0.804688 64.875 -2.421875 L 64.53125 -58.65625 C 64.644531 -59 64.554688 -59.140625 64.265625 -59.078125 C 63.984375 -59.023438 63.785156 -58.828125 63.671875 -58.484375 L 51.0625 -2.421875 C 50.601562 -0.804688 49.570312 0 47.96875 0 Z M 24.84375 0 "/></g></g></g><g fill="#00ffff" fill-opacity="1"><g transform="translate(571.596152, 146.220494)"><g><path d="M 79.703125 -95.578125 C 79.585938 -94.773438 79.269531 -94.144531 78.75 -93.6875 C 78.238281 -93.226562 77.582031 -93 76.78125 -93 L 44.6875 -93 C 44.113281 -93 43.828125 -92.707031 43.828125 -92.125 L 41.75 -75.21875 C 41.519531 -74.644531 41.75 -74.359375 42.4375 -74.359375 L 59.171875 -74.359375 C 59.984375 -74.359375 60.585938 -74.128906 60.984375 -73.671875 C 61.390625 -73.210938 61.535156 -72.578125 61.421875 -71.765625 L 58.65625 -49.171875 C 58.3125 -47.441406 57.335938 -46.578125 55.734375 -46.578125 L 38.984375 -46.578125 C 38.410156 -46.578125 38.125 -46.289062 38.125 -45.71875 L 36.0625 -28.640625 C 35.832031 -28.066406 36.0625 -27.78125 36.75 -27.78125 L 68.84375 -27.78125 C 69.644531 -27.78125 70.242188 -27.546875 70.640625 -27.078125 C 71.046875 -26.617188 71.191406 -25.988281 71.078125 -25.1875 L 68.328125 -2.59375 C 68.210938 -1.78125 67.894531 -1.144531 67.375 -0.6875 C 66.851562 -0.226562 66.191406 0 65.390625 0 L 3.453125 0 C 2.765625 0 2.21875 -0.226562 1.8125 -0.6875 C 1.40625 -1.144531 1.257812 -1.78125 1.375 -2.59375 L 15.53125 -118.1875 C 15.644531 -118.988281 15.957031 -119.617188 16.46875 -120.078125 C 16.988281 -120.535156 17.59375 -120.765625 18.28125 -120.765625 L 80.234375 -120.765625 C 81.035156 -120.765625 81.632812 -120.535156 82.03125 -120.078125 C 82.4375 -119.617188 82.582031 -118.988281 82.46875 -118.1875 Z M 79.703125 -95.578125 "/></g></g></g><g fill="#00ffff" fill-opacity="1"><g transform="translate(658.20671, 146.220494)"><g><path d="M 35.890625 1.375 C 25.992188 1.375 18.171875 -1.179688 12.421875 -6.296875 C 6.671875 -11.410156 3.796875 -18.226562 3.796875 -26.75 C 3.796875 -27.550781 3.910156 -28.988281 4.140625 -31.0625 L 4.828125 -36.40625 C 4.941406 -37.207031 5.257812 -37.835938 5.78125 -38.296875 C 6.300781 -38.753906 6.90625 -38.984375 7.59375 -38.984375 L 33.8125 -38.984375 C 34.5 -38.984375 35.046875 -38.753906 35.453125 -38.296875 C 35.859375 -37.835938 36.003906 -37.207031 35.890625 -36.40625 L 35.546875 -32.609375 C 35.316406 -30.765625 35.546875 -29.265625 36.234375 -28.109375 C 36.921875 -26.960938 37.957031 -26.390625 39.34375 -26.390625 C 40.832031 -26.390625 42.09375 -27.019531 43.125 -28.28125 C 44.164062 -29.550781 44.6875 -31.109375 44.6875 -32.953125 C 44.6875 -34.679688 43.851562 -36.460938 42.1875 -38.296875 C 40.519531 -40.140625 37.328125 -42.957031 32.609375 -46.75 C 28.003906 -50.550781 24.207031 -53.914062 21.21875 -56.84375 C 18.226562 -59.78125 15.640625 -63.40625 13.453125 -67.71875 C 11.265625 -72.03125 10.171875 -76.945312 10.171875 -82.46875 C 10.171875 -83.5 10.289062 -85.28125 10.53125 -87.8125 C 11.789062 -98.050781 16.039062 -106.332031 23.28125 -112.65625 C 30.53125 -118.988281 39.5625 -122.15625 50.375 -122.15625 C 60.269531 -122.15625 68.0625 -119.507812 73.75 -114.21875 C 79.445312 -108.925781 82.296875 -101.796875 82.296875 -92.828125 C 82.296875 -91.785156 82.179688 -90.113281 81.953125 -87.8125 L 81.4375 -84.015625 C 81.320312 -83.210938 81.003906 -82.582031 80.484375 -82.125 C 79.960938 -81.664062 79.359375 -81.4375 78.671875 -81.4375 L 52.625 -81.4375 C 51.9375 -81.4375 51.390625 -81.664062 50.984375 -82.125 C 50.578125 -82.582031 50.429688 -83.210938 50.546875 -84.015625 L 51.0625 -88.515625 C 51.175781 -90.234375 50.859375 -91.640625 50.109375 -92.734375 C 49.367188 -93.828125 48.304688 -94.375 46.921875 -94.375 C 45.316406 -94.375 43.992188 -93.679688 42.953125 -92.296875 C 41.921875 -90.921875 41.40625 -89.082031 41.40625 -86.78125 C 41.40625 -84.820312 42.207031 -82.804688 43.8125 -80.734375 C 45.425781 -78.671875 48.421875 -75.800781 52.796875 -72.125 C 58.660156 -67.175781 63.144531 -63.175781 66.25 -60.125 C 69.351562 -57.082031 71.796875 -53.75 73.578125 -50.125 C 75.367188 -46.5 76.265625 -42.382812 76.265625 -37.78125 C 76.265625 -36.863281 76.144531 -35.253906 75.90625 -32.953125 C 74.53125 -22.484375 70.191406 -14.144531 62.890625 -7.9375 C 55.585938 -1.726562 46.585938 1.375 35.890625 1.375 Z M 35.890625 1.375 "/></g></g></g><g fill="#00ffff" fill-opacity="1"><g transform="translate(747.922799, 146.220494)"><g><path d="M 56.765625 -118.1875 C 56.878906 -118.988281 57.164062 -119.617188 57.625 -120.078125 C 58.082031 -120.535156 58.710938 -120.765625 59.515625 -120.765625 L 85.921875 -120.765625 C 86.722656 -120.765625 87.328125 -120.535156 87.734375 -120.078125 C 88.140625 -119.617188 88.28125 -118.988281 88.15625 -118.1875 L 74.015625 -2.59375 C 73.898438 -1.78125 73.582031 -1.144531 73.0625 -0.6875 C 72.550781 -0.226562 71.890625 0 71.078125 0 L 44.6875 0 C 43.882812 0 43.28125 -0.226562 42.875 -0.6875 C 42.46875 -1.144531 42.320312 -1.78125 42.4375 -2.59375 L 47.796875 -45.71875 C 47.796875 -46.289062 47.5625 -46.578125 47.09375 -46.578125 L 38.984375 -46.578125 C 38.410156 -46.578125 38.125 -46.289062 38.125 -45.71875 L 32.78125 -2.59375 C 32.664062 -1.78125 32.347656 -1.144531 31.828125 -0.6875 C 31.316406 -0.226562 30.710938 0 30.015625 0 L 3.453125 0 C 2.765625 0 2.21875 -0.226562 1.8125 -0.6875 C 1.40625 -1.144531 1.257812 -1.78125 1.375 -2.59375 L 15.53125 -118.1875 C 15.644531 -118.988281 15.957031 -119.617188 16.46875 -120.078125 C 16.988281 -120.535156 17.59375 -120.765625 18.28125 -120.765625 L 44.859375 -120.765625 C 45.546875 -120.765625 46.085938 -120.535156 46.484375 -120.078125 C 46.890625 -119.617188 47.035156 -118.988281 46.921875 -118.1875 L 41.75 -75.21875 C 41.519531 -74.644531 41.75 -74.359375 42.4375 -74.359375 L 50.546875 -74.359375 C 50.773438 -74.359375 50.976562 -74.441406 51.15625 -74.609375 C 51.332031 -74.785156 51.421875 -74.988281 51.421875 -75.21875 Z M 56.765625 -118.1875 "/></g></g></g><g fill="#00ffff" fill-opacity="1"><g transform="translate(841.434554, 146.220494)"><g><path d="M 24.84375 0 C 23.226562 0 22.363281 -0.75 22.25 -2.25 L 13.625 -118.015625 C 13.625 -119.847656 14.546875 -120.765625 16.390625 -120.765625 L 43.65625 -120.765625 C 45.257812 -120.765625 46.0625 -119.960938 46.0625 -118.359375 L 45.203125 -64.875 C 45.085938 -64.53125 45.203125 -64.359375 45.546875 -64.359375 C 45.890625 -64.359375 46.0625 -64.53125 46.0625 -64.875 L 58.828125 -118.359375 C 59.171875 -119.960938 60.207031 -120.765625 61.9375 -120.765625 L 82.296875 -120.765625 C 83.910156 -120.765625 84.71875 -119.960938 84.71875 -118.359375 L 85.234375 -64.875 C 85.234375 -64.644531 85.375 -64.5 85.65625 -64.4375 C 85.945312 -64.382812 86.09375 -64.53125 86.09375 -64.875 L 97.65625 -118.359375 C 98.113281 -119.960938 99.085938 -120.765625 100.578125 -120.765625 L 127.15625 -120.765625 C 129.113281 -120.765625 129.742188 -119.847656 129.046875 -118.015625 L 93.515625 -2.25 C 93.054688 -0.75 92.019531 0 90.40625 0 L 67.28125 0 C 65.675781 0 64.875 -0.804688 64.875 -2.421875 L 64.53125 -58.65625 C 64.644531 -59 64.554688 -59.140625 64.265625 -59.078125 C 63.984375 -59.023438 63.785156 -58.828125 63.671875 -58.484375 L 51.0625 -2.421875 C 50.601562 -0.804688 49.570312 0 47.96875 0 Z M 24.84375 0 "/></g></g></g><g fill="#00ffff" fill-opacity="1"><g transform="translate(974.110591, 146.220494)"><g><path d="M 53.65625 0 C 52.039062 0 51.296875 -0.804688 51.421875 -2.421875 L 51.0625 -15.53125 C 51.175781 -15.757812 51.117188 -15.957031 50.890625 -16.125 C 50.660156 -16.300781 50.429688 -16.390625 50.203125 -16.390625 L 35.203125 -16.390625 C 34.617188 -16.390625 34.210938 -16.101562 33.984375 -15.53125 L 30.703125 -2.421875 C 30.359375 -0.804688 29.382812 0 27.78125 0 L 1.546875 0 C -0.171875 0 -0.800781 -0.921875 -0.34375 -2.765625 L 37.609375 -118.53125 C 38.066406 -120.019531 39.101562 -120.765625 40.71875 -120.765625 L 71.25 -120.765625 C 72.863281 -120.765625 73.726562 -120.019531 73.84375 -118.53125 L 83.328125 -2.765625 L 83.328125 -2.421875 C 83.328125 -0.804688 82.46875 0 80.75 0 Z M 41.0625 -42.09375 C 40.832031 -41.519531 41.003906 -41.234375 41.578125 -41.234375 L 49.6875 -41.234375 C 50.03125 -41.234375 50.316406 -41.519531 50.546875 -42.09375 L 49.859375 -74.015625 C 49.859375 -74.472656 49.710938 -74.671875 49.421875 -74.609375 C 49.140625 -74.554688 49 -74.359375 49 -74.015625 Z M 41.0625 -42.09375 "/></g></g></g><g fill="#00ffff" fill-opacity="1"><g transform="translate(1075.213627, 146.220494)"><g><path d="M 46.75 0 C 45.375 0 44.570312 -0.75 44.34375 -2.25 L 39.34375 -45.71875 C 39.34375 -46.175781 39.164062 -46.40625 38.8125 -46.40625 C 38.351562 -46.40625 38.125 -46.117188 38.125 -45.546875 L 32.78125 -2.59375 C 32.664062 -1.78125 32.347656 -1.144531 31.828125 -0.6875 C 31.316406 -0.226562 30.710938 0 30.015625 0 L 3.453125 0 C 2.765625 0 2.21875 -0.226562 1.8125 -0.6875 C 1.40625 -1.144531 1.257812 -1.78125 1.375 -2.59375 L 15.53125 -118.1875 C 15.644531 -118.988281 15.957031 -119.617188 16.46875 -120.078125 C 16.988281 -120.535156 17.59375 -120.765625 18.28125 -120.765625 L 56.078125 -120.765625 C 65.273438 -120.765625 72.546875 -117.832031 77.890625 -111.96875 C 83.242188 -106.101562 85.921875 -98.34375 85.921875 -88.6875 C 85.921875 -85.925781 85.804688 -83.796875 85.578125 -82.296875 C 84.773438 -75.972656 82.992188 -70.304688 80.234375 -65.296875 C 77.472656 -60.296875 73.90625 -56.242188 69.53125 -53.140625 C 68.957031 -52.796875 68.785156 -52.394531 69.015625 -51.9375 L 76.4375 -2.9375 L 76.4375 -2.25 C 76.4375 -1.550781 76.203125 -1 75.734375 -0.59375 C 75.273438 -0.195312 74.703125 0 74.015625 0 Z M 44.6875 -93 C 44.113281 -93 43.828125 -92.707031 43.828125 -92.125 L 41.234375 -71.953125 C 41.234375 -71.367188 41.519531 -71.078125 42.09375 -71.078125 L 44.34375 -71.078125 C 47.101562 -71.078125 49.429688 -72.285156 51.328125 -74.703125 C 53.222656 -77.117188 54.171875 -80.457031 54.171875 -84.71875 C 54.171875 -87.363281 53.535156 -89.40625 52.265625 -90.84375 C 51.003906 -92.28125 49.28125 -93 47.09375 -93 Z M 44.6875 -93 "/></g></g></g><g fill="#191919" fill-opacity="1"><g transform="translate(96.929986, 147.82152)"><g><path d="M 25.359375 0 C 23.753906 0 22.953125 -0.75 22.953125 -2.25 L 13.625 -118.015625 C 13.625 -119.847656 14.546875 -120.765625 16.390625 -120.765625 L 45.203125 -120.765625 C 46.816406 -120.765625 47.566406 -119.960938 47.453125 -118.359375 L 47.453125 -56.421875 C 47.335938 -56.078125 47.453125 -55.90625 47.796875 -55.90625 C 48.140625 -55.90625 48.367188 -56.078125 48.484375 -56.421875 L 62.96875 -118.359375 C 63.3125 -119.960938 64.289062 -120.765625 65.90625 -120.765625 L 93.859375 -120.765625 C 94.660156 -120.765625 95.257812 -120.535156 95.65625 -120.078125 C 96.0625 -119.617188 96.09375 -118.929688 95.75 -118.015625 L 57.796875 -2.25 C 57.335938 -0.75 56.300781 0 54.6875 0 Z M 25.359375 0 "/></g></g></g><g fill="#191919" fill-opacity="1"><g transform="translate(196.307761, 147.82152)"><g><path d="M 3.453125 0 C 2.765625 0 2.21875 -0.226562 1.8125 -0.6875 C 1.40625 -1.144531 1.257812 -1.78125 1.375 -2.59375 L 15.53125 -118.1875 C 15.644531 -118.988281 15.957031 -119.617188 16.46875 -120.078125 C 16.988281 -120.535156 17.59375 -120.765625 18.28125 -120.765625 L 44.859375 -120.765625 C 45.546875 -120.765625 46.085938 -120.535156 46.484375 -120.078125 C 46.890625 -119.617188 47.035156 -118.988281 46.921875 -118.1875 L 32.78125 -2.59375 C 32.664062 -1.78125 32.347656 -1.144531 31.828125 -0.6875 C 31.316406 -0.226562 30.710938 0 30.015625 0 Z M 3.453125 0 "/></g></g></g><g fill="#191919" fill-opacity="1"><g transform="translate(248.757439, 147.82152)"><g><path d="M 35.890625 1.375 C 25.992188 1.375 18.171875 -1.179688 12.421875 -6.296875 C 6.671875 -11.410156 3.796875 -18.226562 3.796875 -26.75 C 3.796875 -27.550781 3.910156 -28.988281 4.140625 -31.0625 L 4.828125 -36.40625 C 4.941406 -37.207031 5.257812 -37.835938 5.78125 -38.296875 C 6.300781 -38.753906 6.90625 -38.984375 7.59375 -38.984375 L 33.8125 -38.984375 C 34.5 -38.984375 35.046875 -38.753906 35.453125 -38.296875 C 35.859375 -37.835938 36.003906 -37.207031 35.890625 -36.40625 L 35.546875 -32.609375 C 35.316406 -30.765625 35.546875 -29.265625 36.234375 -28.109375 C 36.921875 -26.960938 37.957031 -26.390625 39.34375 -26.390625 C 40.832031 -26.390625 42.09375 -27.019531 43.125 -28.28125 C 44.164062 -29.550781 44.6875 -31.109375 44.6875 -32.953125 C 44.6875 -34.679688 43.851562 -36.460938 42.1875 -38.296875 C 40.519531 -40.140625 37.328125 -42.957031 32.609375 -46.75 C 28.003906 -50.550781 24.207031 -53.914062 21.21875 -56.84375 C 18.226562 -59.78125 15.640625 -63.40625 13.453125 -67.71875 C 11.265625 -72.03125 10.171875 -76.945312 10.171875 -82.46875 C 10.171875 -83.5 10.289062 -85.28125 10.53125 -87.8125 C 11.789062 -98.050781 16.039062 -106.332031 23.28125 -112.65625 C 30.53125 -118.988281 39.5625 -122.15625 50.375 -122.15625 C 60.269531 -122.15625 68.0625 -119.507812 73.75 -114.21875 C 79.445312 -108.925781 82.296875 -101.796875 82.296875 -92.828125 C 82.296875 -91.785156 82.179688 -90.113281 81.953125 -87.8125 L 81.4375 -84.015625 C 81.320312 -83.210938 81.003906 -82.582031 80.484375 -82.125 C 79.960938 -81.664062 79.359375 -81.4375 78.671875 -81.4375 L 52.625 -81.4375 C 51.9375 -81.4375 51.390625 -81.664062 50.984375 -82.125 C 50.578125 -82.582031 50.429688 -83.210938 50.546875 -84.015625 L 51.0625 -88.515625 C 51.175781 -90.234375 50.859375 -91.640625 50.109375 -92.734375 C 49.367188 -93.828125 48.304688 -94.375 46.921875 -94.375 C 45.316406 -94.375 43.992188 -93.679688 42.953125 -92.296875 C 41.921875 -90.921875 41.40625 -89.082031 41.40625 -86.78125 C 41.40625 -84.820312 42.207031 -82.804688 43.8125 -80.734375 C 45.425781 -78.671875 48.421875 -75.800781 52.796875 -72.125 C 58.660156 -67.175781 63.144531 -63.175781 66.25 -60.125 C 69.351562 -57.082031 71.796875 -53.75 73.578125 -50.125 C 75.367188 -46.5 76.265625 -42.382812 76.265625 -37.78125 C 76.265625 -36.863281 76.144531 -35.253906 75.90625 -32.953125 C 74.53125 -22.484375 70.191406 -14.144531 62.890625 -7.9375 C 55.585938 -1.726562 46.585938 1.375 35.890625 1.375 Z M 35.890625 1.375 "/></g></g></g><g fill="#191919" fill-opacity="1"><g transform="translate(338.473567, 147.82152)"><g><path d="M 56.765625 -118.1875 C 56.878906 -118.988281 57.164062 -119.617188 57.625 -120.078125 C 58.082031 -120.535156 58.710938 -120.765625 59.515625 -120.765625 L 85.921875 -120.765625 C 86.722656 -120.765625 87.328125 -120.535156 87.734375 -120.078125 C 88.140625 -119.617188 88.28125 -118.988281 88.15625 -118.1875 L 74.015625 -2.59375 C 73.898438 -1.78125 73.582031 -1.144531 73.0625 -0.6875 C 72.550781 -0.226562 71.890625 0 71.078125 0 L 44.6875 0 C 43.882812 0 43.28125 -0.226562 42.875 -0.6875 C 42.46875 -1.144531 42.320312 -1.78125 42.4375 -2.59375 L 47.796875 -45.71875 C 47.796875 -46.289062 47.5625 -46.578125 47.09375 -46.578125 L 38.984375 -46.578125 C 38.410156 -46.578125 38.125 -46.289062 38.125 -45.71875 L 32.78125 -2.59375 C 32.664062 -1.78125 32.347656 -1.144531 31.828125 -0.6875 C 31.316406 -0.226562 30.710938 0 30.015625 0 L 3.453125 0 C 2.765625 0 2.21875 -0.226562 1.8125 -0.6875 C 1.40625 -1.144531 1.257812 -1.78125 1.375 -2.59375 L 15.53125 -118.1875 C 15.644531 -118.988281 15.957031 -119.617188 16.46875 -120.078125 C 16.988281 -120.535156 17.59375 -120.765625 18.28125 -120.765625 L 44.859375 -120.765625 C 45.546875 -120.765625 46.085938 -120.535156 46.484375 -120.078125 C 46.890625 -119.617188 47.035156 -118.988281 46.921875 -118.1875 L 41.75 -75.21875 C 41.519531 -74.644531 41.75 -74.359375 42.4375 -74.359375 L 50.546875 -74.359375 C 50.773438 -74.359375 50.976562 -74.441406 51.15625 -74.609375 C 51.332031 -74.785156 51.421875 -74.988281 51.421875 -75.21875 Z M 56.765625 -118.1875 "/></g></g></g><g fill="#191919" fill-opacity="1"><g transform="translate(431.985321, 147.82152)"><g><path d="M 24.84375 0 C 23.226562 0 22.363281 -0.75 22.25 -2.25 L 13.625 -118.015625 C 13.625 -119.847656 14.546875 -120.765625 16.390625 -120.765625 L 43.65625 -120.765625 C 45.257812 -120.765625 46.0625 -119.960938 46.0625 -118.359375 L 45.203125 -64.875 C 45.085938 -64.53125 45.203125 -64.359375 45.546875 -64.359375 C 45.890625 -64.359375 46.0625 -64.53125 46.0625 -64.875 L 58.828125 -118.359375 C 59.171875 -119.960938 60.207031 -120.765625 61.9375 -120.765625 L 82.296875 -120.765625 C 83.910156 -120.765625 84.71875 -119.960938 84.71875 -118.359375 L 85.234375 -64.875 C 85.234375 -64.644531 85.375 -64.5 85.65625 -64.4375 C 85.945312 -64.382812 86.09375 -64.53125 86.09375 -64.875 L 97.65625 -118.359375 C 98.113281 -119.960938 99.085938 -120.765625 100.578125 -120.765625 L 127.15625 -120.765625 C 129.113281 -120.765625 129.742188 -119.847656 129.046875 -118.015625 L 93.515625 -2.25 C 93.054688 -0.75 92.019531 0 90.40625 0 L 67.28125 0 C 65.675781 0 64.875 -0.804688 64.875 -2.421875 L 64.53125 -58.65625 C 64.644531 -59 64.554688 -59.140625 64.265625 -59.078125 C 63.984375 -59.023438 63.785156 -58.828125 63.671875 -58.484375 L 51.0625 -2.421875 C 50.601562 -0.804688 49.570312 0 47.96875 0 Z M 24.84375 0 "/></g></g></g><g fill="#191919" fill-opacity="1"><g transform="translate(564.661359, 147.82152)"><g><path d="M 79.703125 -95.578125 C 79.585938 -94.773438 79.269531 -94.144531 78.75 -93.6875 C 78.238281 -93.226562 77.582031 -93 76.78125 -93 L 44.6875 -93 C 44.113281 -93 43.828125 -92.707031 43.828125 -92.125 L 41.75 -75.21875 C 41.519531 -74.644531 41.75 -74.359375 42.4375 -74.359375 L 59.171875 -74.359375 C 59.984375 -74.359375 60.585938 -74.128906 60.984375 -73.671875 C 61.390625 -73.210938 61.535156 -72.578125 61.421875 -71.765625 L 58.65625 -49.171875 C 58.3125 -47.441406 57.335938 -46.578125 55.734375 -46.578125 L 38.984375 -46.578125 C 38.410156 -46.578125 38.125 -46.289062 38.125 -45.71875 L 36.0625 -28.640625 C 35.832031 -28.066406 36.0625 -27.78125 36.75 -27.78125 L 68.84375 -27.78125 C 69.644531 -27.78125 70.242188 -27.546875 70.640625 -27.078125 C 71.046875 -26.617188 71.191406 -25.988281 71.078125 -25.1875 L 68.328125 -2.59375 C 68.210938 -1.78125 67.894531 -1.144531 67.375 -0.6875 C 66.851562 -0.226562 66.191406 0 65.390625 0 L 3.453125 0 C 2.765625 0 2.21875 -0.226562 1.8125 -0.6875 C 1.40625 -1.144531 1.257812 -1.78125 1.375 -2.59375 L 15.53125 -118.1875 C 15.644531 -118.988281 15.957031 -119.617188 16.46875 -120.078125 C 16.988281 -120.535156 17.59375 -120.765625 18.28125 -120.765625 L 80.234375 -120.765625 C 81.035156 -120.765625 81.632812 -120.535156 82.03125 -120.078125 C 82.4375 -119.617188 82.582031 -118.988281 82.46875 -118.1875 Z M 79.703125 -95.578125 "/></g></g></g><g fill="#191919" fill-opacity="1"><g transform="translate(651.271917, 147.82152)"><g><path d="M 35.890625 1.375 C 25.992188 1.375 18.171875 -1.179688 12.421875 -6.296875 C 6.671875 -11.410156 3.796875 -18.226562 3.796875 -26.75 C 3.796875 -27.550781 3.910156 -28.988281 4.140625 -31.0625 L 4.828125 -36.40625 C 4.941406 -37.207031 5.257812 -37.835938 5.78125 -38.296875 C 6.300781 -38.753906 6.90625 -38.984375 7.59375 -38.984375 L 33.8125 -38.984375 C 34.5 -38.984375 35.046875 -38.753906 35.453125 -38.296875 C 35.859375 -37.835938 36.003906 -37.207031 35.890625 -36.40625 L 35.546875 -32.609375 C 35.316406 -30.765625 35.546875 -29.265625 36.234375 -28.109375 C 36.921875 -26.960938 37.957031 -26.390625 39.34375 -26.390625 C 40.832031 -26.390625 42.09375 -27.019531 43.125 -28.28125 C 44.164062 -29.550781 44.6875 -31.109375 44.6875 -32.953125 C 44.6875 -34.679688 43.851562 -36.460938 42.1875 -38.296875 C 40.519531 -40.140625 37.328125 -42.957031 32.609375 -46.75 C 28.003906 -50.550781 24.207031 -53.914062 21.21875 -56.84375 C 18.226562 -59.78125 15.640625 -63.40625 13.453125 -67.71875 C 11.265625 -72.03125 10.171875 -76.945312 10.171875 -82.46875 C 10.171875 -83.5 10.289062 -85.28125 10.53125 -87.8125 C 11.789062 -98.050781 16.039062 -106.332031 23.28125 -112.65625 C 30.53125 -118.988281 39.5625 -122.15625 50.375 -122.15625 C 60.269531 -122.15625 68.0625 -119.507812 73.75 -114.21875 C 79.445312 -108.925781 82.296875 -101.796875 82.296875 -92.828125 C 82.296875 -91.785156 82.179688 -90.113281 81.953125 -87.8125 L 81.4375 -84.015625 C 81.320312 -83.210938 81.003906 -82.582031 80.484375 -82.125 C 79.960938 -81.664062 79.359375 -81.4375 78.671875 -81.4375 L 52.625 -81.4375 C 51.9375 -81.4375 51.390625 -81.664062 50.984375 -82.125 C 50.578125 -82.582031 50.429688 -83.210938 50.546875 -84.015625 L 51.0625 -88.515625 C 51.175781 -90.234375 50.859375 -91.640625 50.109375 -92.734375 C 49.367188 -93.828125 48.304688 -94.375 46.921875 -94.375 C 45.316406 -94.375 43.992188 -93.679688 42.953125 -92.296875 C 41.921875 -90.921875 41.40625 -89.082031 41.40625 -86.78125 C 41.40625 -84.820312 42.207031 -82.804688 43.8125 -80.734375 C 45.425781 -78.671875 48.421875 -75.800781 52.796875 -72.125 C 58.660156 -67.175781 63.144531 -63.175781 66.25 -60.125 C 69.351562 -57.082031 71.796875 -53.75 73.578125 -50.125 C 75.367188 -46.5 76.265625 -42.382812 76.265625 -37.78125 C 76.265625 -36.863281 76.144531 -35.253906 75.90625 -32.953125 C 74.53125 -22.484375 70.191406 -14.144531 62.890625 -7.9375 C 55.585938 -1.726562 46.585938 1.375 35.890625 1.375 Z M 35.890625 1.375 "/></g></g></g><g fill="#191919" fill-opacity="1"><g transform="translate(740.988005, 147.82152)"><g><path d="M 56.765625 -118.1875 C 56.878906 -118.988281 57.164062 -119.617188 57.625 -120.078125 C 58.082031 -120.535156 58.710938 -120.765625 59.515625 -120.765625 L 85.921875 -120.765625 C 86.722656 -120.765625 87.328125 -120.535156 87.734375 -120.078125 C 88.140625 -119.617188 88.28125 -118.988281 88.15625 -118.1875 L 74.015625 -2.59375 C 73.898438 -1.78125 73.582031 -1.144531 73.0625 -0.6875 C 72.550781 -0.226562 71.890625 0 71.078125 0 L 44.6875 0 C 43.882812 0 43.28125 -0.226562 42.875 -0.6875 C 42.46875 -1.144531 42.320312 -1.78125 42.4375 -2.59375 L 47.796875 -45.71875 C 47.796875 -46.289062 47.5625 -46.578125 47.09375 -46.578125 L 38.984375 -46.578125 C 38.410156 -46.578125 38.125 -46.289062 38.125 -45.71875 L 32.78125 -2.59375 C 32.664062 -1.78125 32.347656 -1.144531 31.828125 -0.6875 C 31.316406 -0.226562 30.710938 0 30.015625 0 L 3.453125 0 C 2.765625 0 2.21875 -0.226562 1.8125 -0.6875 C 1.40625 -1.144531 1.257812 -1.78125 1.375 -2.59375 L 15.53125 -118.1875 C 15.644531 -118.988281 15.957031 -119.617188 16.46875 -120.078125 C 16.988281 -120.535156 17.59375 -120.765625 18.28125 -120.765625 L 44.859375 -120.765625 C 45.546875 -120.765625 46.085938 -120.535156 46.484375 -120.078125 C 46.890625 -119.617188 47.035156 -118.988281 46.921875 -118.1875 L 41.75 -75.21875 C 41.519531 -74.644531 41.75 -74.359375 42.4375 -74.359375 L 50.546875 -74.359375 C 50.773438 -74.359375 50.976562 -74.441406 51.15625 -74.609375 C 51.332031 -74.785156 51.421875 -74.988281 51.421875 -75.21875 Z M 56.765625 -118.1875 "/></g></g></g><g fill="#191919" fill-opacity="1"><g transform="translate(834.49976, 147.82152)"><g><path d="M 24.84375 0 C 23.226562 0 22.363281 -0.75 22.25 -2.25 L 13.625 -118.015625 C 13.625 -119.847656 14.546875 -120.765625 16.390625 -120.765625 L 43.65625 -120.765625 C 45.257812 -120.765625 46.0625 -119.960938 46.0625 -118.359375 L 45.203125 -64.875 C 45.085938 -64.53125 45.203125 -64.359375 45.546875 -64.359375 C 45.890625 -64.359375 46.0625 -64.53125 46.0625 -64.875 L 58.828125 -118.359375 C 59.171875 -119.960938 60.207031 -120.765625 61.9375 -120.765625 L 82.296875 -120.765625 C 83.910156 -120.765625 84.71875 -119.960938 84.71875 -118.359375 L 85.234375 -64.875 C 85.234375 -64.644531 85.375 -64.5 85.65625 -64.4375 C 85.945312 -64.382812 86.09375 -64.53125 86.09375 -64.875 L 97.65625 -118.359375 C 98.113281 -119.960938 99.085938 -120.765625 100.578125 -120.765625 L 127.15625 -120.765625 C 129.113281 -120.765625 129.742188 -119.847656 129.046875 -118.015625 L 93.515625 -2.25 C 93.054688 -0.75 92.019531 0 90.40625 0 L 67.28125 0 C 65.675781 0 64.875 -0.804688 64.875 -2.421875 L 64.53125 -58.65625 C 64.644531 -59 64.554688 -59.140625 64.265625 -59.078125 C 63.984375 -59.023438 63.785156 -58.828125 63.671875 -58.484375 L 51.0625 -2.421875 C 50.601562 -0.804688 49.570312 0 47.96875 0 Z M 24.84375 0 "/></g></g></g><g fill="#191919" fill-opacity="1"><g transform="translate(967.175798, 147.82152)"><g><path d="M 53.65625 0 C 52.039062 0 51.296875 -0.804688 51.421875 -2.421875 L 51.0625 -15.53125 C 51.175781 -15.757812 51.117188 -15.957031 50.890625 -16.125 C 50.660156 -16.300781 50.429688 -16.390625 50.203125 -16.390625 L 35.203125 -16.390625 C 34.617188 -16.390625 34.210938 -16.101562 33.984375 -15.53125 L 30.703125 -2.421875 C 30.359375 -0.804688 29.382812 0 27.78125 0 L 1.546875 0 C -0.171875 0 -0.800781 -0.921875 -0.34375 -2.765625 L 37.609375 -118.53125 C 38.066406 -120.019531 39.101562 -120.765625 40.71875 -120.765625 L 71.25 -120.765625 C 72.863281 -120.765625 73.726562 -120.019531 73.84375 -118.53125 L 83.328125 -2.765625 L 83.328125 -2.421875 C 83.328125 -0.804688 82.46875 0 80.75 0 Z M 41.0625 -42.09375 C 40.832031 -41.519531 41.003906 -41.234375 41.578125 -41.234375 L 49.6875 -41.234375 C 50.03125 -41.234375 50.316406 -41.519531 50.546875 -42.09375 L 49.859375 -74.015625 C 49.859375 -74.472656 49.710938 -74.671875 49.421875 -74.609375 C 49.140625 -74.554688 49 -74.359375 49 -74.015625 Z M 41.0625 -42.09375 "/></g></g></g><g fill="#191919" fill-opacity="1"><g transform="translate(1068.278833, 147.82152)"><g><path d="M 46.75 0 C 45.375 0 44.570312 -0.75 44.34375 -2.25 L 39.34375 -45.71875 C 39.34375 -46.175781 39.164062 -46.40625 38.8125 -46.40625 C 38.351562 -46.40625 38.125 -46.117188 38.125 -45.546875 L 32.78125 -2.59375 C 32.664062 -1.78125 32.347656 -1.144531 31.828125 -0.6875 C 31.316406 -0.226562 30.710938 0 30.015625 0 L 3.453125 0 C 2.765625 0 2.21875 -0.226562 1.8125 -0.6875 C 1.40625 -1.144531 1.257812 -1.78125 1.375 -2.59375 L 15.53125 -118.1875 C 15.644531 -118.988281 15.957031 -119.617188 16.46875 -120.078125 C 16.988281 -120.535156 17.59375 -120.765625 18.28125 -120.765625 L 56.078125 -120.765625 C 65.273438 -120.765625 72.546875 -117.832031 77.890625 -111.96875 C 83.242188 -106.101562 85.921875 -98.34375 85.921875 -88.6875 C 85.921875 -85.925781 85.804688 -83.796875 85.578125 -82.296875 C 84.773438 -75.972656 82.992188 -70.304688 80.234375 -65.296875 C 77.472656 -60.296875 73.90625 -56.242188 69.53125 -53.140625 C 68.957031 -52.796875 68.785156 -52.394531 69.015625 -51.9375 L 76.4375 -2.9375 L 76.4375 -2.25 C 76.4375 -1.550781 76.203125 -1 75.734375 -0.59375 C 75.273438 -0.195312 74.703125 0 74.015625 0 Z M 44.6875 -93 C 44.113281 -93 43.828125 -92.707031 43.828125 -92.125 L 41.234375 -71.953125 C 41.234375 -71.367188 41.519531 -71.078125 42.09375 -71.078125 L 44.34375 -71.078125 C 47.101562 -71.078125 49.429688 -72.285156 51.328125 -74.703125 C 53.222656 -77.117188 54.171875 -80.457031 54.171875 -84.71875 C 54.171875 -87.363281 53.535156 -89.40625 52.265625 -90.84375 C 51.003906 -92.28125 49.28125 -93 47.09375 -93 Z M 44.6875 -93 "/></g></g></g></svg>